<?xml version="1.0" standalone="no"?>
<!DOCTYPE svg PUBLIC "-//W3C//DTD SVG 20010904//EN"
 "http://www.w3.org/TR/2001/REC-SVG-20010904/DTD/svg10.dtd">
<svg version="1.0" xmlns="http://www.w3.org/2000/svg"
 width="743.000000pt" height="743.000000pt" viewBox="0 0 743.000000 743.000000"
 preserveAspectRatio="xMidYMid meet">

<g transform="translate(0.000000,743.000000) scale(0.100000,-0.100000)"
fill="#000000" stroke="none">
<path d="M3410 7393 c-19 -2 -93 -10 -163 -19 -1265 -153 -2382 -988 -2901
-2165 -311 -706 -394 -1479 -240 -2239 103 -503 337 -1026 646 -1441 568 -765
1399 -1277 2331 -1438 245 -43 403 -53 702 -48 362 7 554 33 890 122 994 261
1869 973 2332 1900 623 1243 492 2744 -335 3851 -578 773 -1409 1280 -2357
1438 -82 14 -202 30 -265 36 -105 9 -557 12 -640 3z m531 -414 c621 -48 1179
-249 1673 -601 150 -107 268 -208 411 -352 534 -538 850 -1205 936 -1976 17
-156 14 -518 -6 -685 -123 -1034 -698 -1926 -1577 -2446 -848 -503 -1853 -594
-2793 -254 -433 157 -838 416 -1175 754 -524 526 -840 1172 -937 1919 -21 165
-24 593 -5 742 100 766 388 1383 892 1904 335 346 711 599 1152 775 448 178
959 257 1429 220z"/>
<path d="M3652 5068 c-53 -12 -107 -63 -121 -115 -7 -24 -11 -224 -11 -550 l0
-512 -533 -3 -533 -3 -41 -27 c-102 -67 -119 -185 -40 -275 57 -64 43 -63 622
-63 l525 0 0 -522 c0 -487 2 -526 19 -563 53 -115 193 -143 285 -57 57 53 56
46 56 617 l0 525 525 0 c584 0 564 -2 627 68 88 97 39 256 -89 291 -24 7 -224
11 -550 11 l-513 0 0 523 c0 487 -2 525 -19 563 -26 58 -63 82 -151 99 -8 1
-34 -2 -58 -7z"/>
</g>
</svg>
