<?xml version="1.0" standalone="no"?>
<!DOCTYPE svg PUBLIC "-//W3C//DTD SVG 20010904//EN"
 "http://www.w3.org/TR/2001/REC-SVG-20010904/DTD/svg10.dtd">
<svg version="1.0" xmlns="http://www.w3.org/2000/svg"
 width="512.000000pt" height="512.000000pt" viewBox="0 0 512.000000 512.000000"
 preserveAspectRatio="xMidYMid meet">

<g transform="translate(0.000000,512.000000) scale(0.100000,-0.100000)"
fill="#000000" stroke="none">
<path d="M2310 5114 c-528 -63 -952 -236 -1355 -552 -91 -71 -326 -307 -397
-397 -284 -362 -451 -739 -531 -1195 -19 -109 -21 -162 -21 -410 0 -314 10
-408 74 -654 171 -658 607 -1227 1205 -1572 260 -150 543 -250 865 -307 109
-19 162 -21 410 -21 248 0 301 2 410 21 456 80 833 247 1195 531 90 71 326
306 397 397 283 360 451 739 531 1195 30 172 32 625 4 795 -77 463 -249 856
-535 1220 -71 91 -307 326 -397 397 -361 283 -742 452 -1190 530 -96 16 -172
21 -375 23 -140 2 -271 1 -290 -1z m529 -499 c705 -100 1309 -548 1603 -1190
133 -290 188 -543 188 -865 0 -322 -55 -575 -188 -865 -294 -641 -902 -1093
-1600 -1189 -147 -21 -417 -21 -564 0 -614 84 -1160 444 -1490 979 -63 103
-153 294 -191 406 -74 218 -107 423 -107 669 0 322 55 575 188 865 293 638
895 1087 1595 1189 127 19 437 19 566 1z"/>
<path d="M2312 3660 c-18 -11 -41 -34 -52 -52 -19 -31 -20 -51 -20 -380 l0
-348 -347 0 c-330 0 -350 -1 -381 -20 -67 -41 -72 -60 -72 -300 0 -240 5 -259
72 -300 31 -19 51 -20 381 -20 l347 0 0 -341 c0 -377 2 -387 64 -432 30 -21
39 -22 256 -22 217 0 226 1 256 22 62 45 64 55 64 432 l0 341 349 0 c344 0
348 0 381 23 74 50 75 54 75 296 l0 218 -28 36 c-51 68 -48 67 -432 67 l-345
0 0 348 c0 329 -1 349 -20 380 -41 67 -60 72 -300 72 -197 0 -218 -2 -248 -20z"/>
</g>
</svg>
