<?xml version="1.0" standalone="no"?>
<!DOCTYPE svg PUBLIC "-//W3C//DTD SVG 20010904//EN"
 "http://www.w3.org/TR/2001/REC-SVG-20010904/DTD/svg10.dtd">
<svg version="1.0" xmlns="http://www.w3.org/2000/svg"
 width="281.000000pt" height="277.000000pt" viewBox="0 0 281.000000 277.000000"
 preserveAspectRatio="xMidYMid meet">

<g transform="translate(0.000000,277.000000) scale(0.100000,-0.100000)"
fill="#000000" stroke="none">
<path d="M2490 2749 c-14 -6 -267 -252 -563 -547 l-537 -537 -528 527 c-290
289 -541 533 -559 542 -18 9 -55 16 -83 16 -106 0 -180 -71 -188 -181 -3 -45
0 -65 15 -88 10 -17 192 -205 403 -418 212 -213 448 -452 525 -531 l139 -143
-531 -532 c-292 -293 -536 -542 -542 -554 -17 -33 -13 -113 8 -158 46 -99 155
-143 244 -99 18 9 272 255 564 547 l533 532 537 -536 c584 -583 566 -567 667
-555 61 7 92 28 130 89 36 58 44 122 22 168 -14 31 -695 719 -974 986 -56 54
-102 105 -102 113 0 8 236 251 525 540 553 554 575 580 560 649 -19 87 -124
182 -199 180 -23 0 -52 -5 -66 -10z"/>
</g>
</svg>
